Patient4_TMGait_0pt6_02_left_19_GRF.mot
version=1
nRows=58
nColumns=19
inDegrees=no
endheader
time	F1x	F1y	F1z	M1x	M1y	M1z	F2x	F2y	F2z	M2x	M2y	M2z	EC1x	EC1y	EC1z	EC2x	EC2y	EC2z
23.33	-1.4687	-6.1419	4.4926	0.41135	-2.8385	-5.6708	-33.1126	742.298	-73.5011	281.7553	86.7427	753.6316	-0.0592	0.0182	-0.0073	-0.0462	0.0165	0.9585
23.3424	-1.0938	-3.3644	3.0463	0.0064609	-1.9688	-2.8753	-31.6018	735.6845	-68.1431	280.6104	80.2458	746.1331	-0.0592	0.0182	-0.0073	-0.0462	0.0165	0.9585
23.3547	-0.75945	-0.98482	1.8452	-0.35445	-1.2555	-0.50214	-29.7152	731.748	-63.3506	280.3422	74.1866	740.3696	-0.0592	0.0182	-0.0073	-0.0462	0.0165	0.9585
23.3671	-0.49155	0.85976	0.94324	-0.64721	-0.72414	1.3242	-27.4989	731.0151	-59.3438	281.0866	68.8351	736.8441	-0.0592	0.0182	-0.0073	-0.0462	0.0165	0.9585
23.3794	-0.30972	2.1735	0.33518	-0.86691	-0.37367	2.6255	-24.988	733.2467	-56.2243	282.746	64.3144	735.3953	-0.0592	0.0182	-0.0073	-0.0462	0.0165	0.9585
23.3918	-0.19517	3.0261	-0.02651	-1.02	-0.17272	3.4621	-22.1767	737.7518	-53.9232	285.0806	60.5532	735.4444	-0.0592	0.0182	-0.0073	-0.0462	0.0165	0.9585
23.4041	-0.16144	3.5104	-0.19958	-1.1138	-0.096991	3.933	-19.0458	743.6412	-52.3575	287.7892	57.4474	736.221	-0.0592	0.0182	-0.0073	-0.0462	0.0165	0.9585
23.4165	-0.18269	3.6928	-0.24028	-1.1487	-0.11543	4.0926	-15.5608	750.0799	-51.3386	290.5984	54.7863	736.9887	-0.0592	0.0182	-0.0073	-0.0462	0.0165	0.9585
23.4289	-0.25803	3.6148	-0.19656	-1.1186	-0.20446	3.9849	-11.6959	756.4121	-50.7297	293.2964	52.412	737.1783	-0.0592	0.0182	-0.0073	-0.0462	0.0165	0.9585
23.4412	-0.36998	3.2737	-0.10186	-1.0062	-0.3442	3.588	-7.4705	762.1542	-50.3627	295.7328	50.1538	736.3868	-0.0592	0.0182	-0.0073	-0.0462	0.0165	0.9585
23.4536	-0.50806	2.6365	0.0092651	-0.78669	-0.50384	2.8626	-2.9467	766.9971	-50.1394	297.8073	47.9281	734.4241	-0.0592	0.0182	-0.0073	-0.0462	0.0165	0.9585
23.4659	-0.63496	1.6278	0.12231	-0.4267	-0.65943	1.7241	1.7848	770.7599	-49.9676	299.4551	45.6722	731.2389	-0.0592	0.0182	-0.0073	-0.0462	0.0165	0.9585
23.4783	-0.72166	0.19173	0.21292	0.097736	-0.77432	0.10346	6.584	773.3494	-49.8268	300.6294	43.4121	726.8844	-0.0592	0.0182	-0.0073	-0.0462	0.0165	0.9585
23.4906	-0.71402	-1.703	0.27233	0.79634	-0.81677	-2.034	11.314	774.7141	-49.7124	301.2885	41.1917	721.4684	-0.0592	0.0182	-0.0073	-0.0462	0.0165	0.9585
23.503	-0.53529	-3.988	0.27856	1.6386	-0.73403	-4.6069	15.8099	774.7761	-49.6739	301.3716	39.114	715.0952	-0.0592	0.0182	-0.0073	-0.0462	0.0165	0.9585
23.5154	-0.089298	-6.4165	0.21379	2.5297	-0.46721	-7.3324	19.9109	773.456	-49.7571	300.818	37.2772	707.8497	-0.0592	0.0182	-0.0073	-0.0462	0.0165	0.9585
23.5277	0.74455	-8.4894	0.041685	3.2822	0.068211	-9.6494	23.4822	770.7506	-50.0151	299.6012	35.7829	699.8608	-0.0592	0.0182	-0.0073	-0.0462	0.0165	0.9585
23.5401	2.0718	-9.3667	-0.26995	3.5816	0.9464	-10.616	26.4809	766.7399	-50.4783	297.7438	34.6813	691.2743	-0.0592	0.0182	-0.0073	-0.0462	0.0165	0.9585
23.5524	3.9676	-7.8187	-0.75765	2.9646	2.2309	-8.8716	28.9593	761.5647	-51.1521	295.3105	33.9621	682.2225	-0.0592	0.0182	-0.0073	-0.0462	0.0165	0.9585
23.5648	6.4066	-2.1832	-1.4392	0.80971	3.9246	-2.569	31.0555	755.3791	-51.9863	292.3851	33.5355	672.7809	-0.0592	0.0182	-0.0073	-0.0462	0.0165	0.9585
23.5771	9.221	9.5501	-2.3076	-3.6369	5.9451	10.5099	32.9293	748.2331	-52.8726	289.0212	33.2551	662.9243	-0.0592	0.0182	-0.0073	-0.0462	0.0165	0.9585
23.5895	11.972	29.5393	-3.2953	-11.1812	8.0436	32.7697	34.7188	739.93	-53.6458	285.186	32.9294	652.4127	-0.0592	0.0182	-0.0073	-0.0462	0.0165	0.9585
23.6019	13.8931	59.6213	-4.2472	-22.5085	9.7502	66.2592	36.4969	729.9682	-54.0912	280.7307	32.3542	640.7575	-0.0592	0.0182	-0.0073	-0.0462	0.0165	0.9585
23.6142	13.7916	100.6412	-4.8844	-37.9262	10.3088	111.9448	38.2357	717.4712	-53.9638	275.361	31.3383	627.1707	-0.0592	0.0182	-0.0073	-0.0462	0.0165	0.9585
23.6266	10.3526	151.6465	-4.8262	-57.0647	8.8171	168.7699	39.8172	701.2247	-52.9954	268.6523	29.709	610.6005	-0.0592	0.0182	-0.0073	-0.0462	0.0165	0.9585
23.6389	3.1559	209.4934	-3.6392	-78.7155	4.6535	233.2118	41.0748	679.873	-50.951	260.1189	27.3451	589.9105	-0.0592	0.0182	-0.0073	-0.0462	0.0165	0.9585
23.6513	-6.2675	268.5876	-0.79669	-100.7402	-2.1714	298.9006	41.831	652.1382	-47.6878	249.2967	24.207	564.0327	-0.0592	0.0182	-0.0073	-0.0462	0.0165	0.9585
23.6636	-15.4989	322.2206	4.1772	-120.6109	-11.1876	358.0631	41.9166	617.1105	-43.2394	235.8437	20.4014	532.2184	-0.0592	0.0182	-0.0073	-0.0462	0.0165	0.9585
23.676	-22.9071	366.6498	10.6158	-136.9502	-21.0078	406.2279	41.2452	574.5774	-37.8284	219.6585	16.1577	494.3011	-0.0592	0.0182	-0.0073	-0.0462	0.0165	0.9585
23.6884	-27.7163	402.1014	17.5977	-149.8921	-30.3264	443.5049	39.7816	525.1457	-31.8763	200.9281	11.8314	450.8126	-0.0592	0.0182	-0.0073	-0.0462	0.0165	0.9585
23.7007	-29.842	430.9768	24.1337	-160.4059	-38.0352	472.568	37.5905	470.103	-25.8917	180.0905	7.8011	402.8403	-0.0592	0.0182	-0.0073	-0.0462	0.0165	0.9585
23.7131	-29.5347	456.1609	29.5113	-169.6321	-43.4719	496.6489	34.715	411.2258	-20.2849	157.7761	4.3616	351.8883	-0.0592	0.0182	-0.0073	-0.0462	0.0165	0.9585
23.7254	-27.3032	480.0973	33.4128	-178.519	-46.502	518.5173	31.1937	350.5929	-15.3354	134.7469	1.7052	299.7062	-0.0592	0.0182	-0.0073	-0.0462	0.0165	0.9585
23.7378	-23.7103	504.6106	35.8314	-187.7496	-47.365	540.218	27.0544	290.46	-11.1949	111.8484	-0.074362	248.1775	-0.0592	0.0182	-0.0073	-0.0462	0.0165	0.9585
23.7501	-19.3733	531.0272	37.1656	-197.7814	-46.7409	563.336	22.3795	233.0874	-7.9247	89.9389	-0.9726	199.182	-0.0592	0.0182	-0.0073	-0.0462	0.0165	0.9585
23.7625	-14.7925	560.2325	37.8455	-208.8909	-45.3086	588.9432	17.4019	180.5446	-5.5107	69.8136	-1.0936	154.4219	-0.0592	0.0182	-0.0073	-0.0462	0.0165	0.9585
23.7749	-10.3775	592.5847	38.4139	-221.149	-43.8076	617.5264	12.4749	134.4557	-3.8706	52.1035	-0.63933	115.2219	-0.0592	0.0182	-0.0073	-0.0462	0.0165	0.9585
23.7872	-6.4352	627.669	39.1785	-234.357	-42.6916	648.7199	8.0262	95.7509	-2.8444	37.1844	0.10643	82.3102	-0.0592	0.0182	-0.0073	-0.0462	0.0165	0.9585
23.7996	-3.1749	664.318	40.4804	-248.0408	-42.385	681.3602	4.354	64.6153	-2.2287	25.1493	0.87504	55.816	-0.0592	0.0182	-0.0073	-0.0462	0.0165	0.9585
23.8119	-0.6796	700.9208	42.2849	-261.5865	-42.8785	713.8034	1.5964	40.6313	-1.8173	15.8577	1.4581	35.3661	-0.0592	0.0182	-0.0073	-0.0462	0.0165	0.9585
23.8243	1.2061	735.6878	44.5018	-274.3278	-44.0143	744.234	-0.28531	23.0222	-1.4688	9.0216	1.7622	20.3199	-0.0592	0.0182	-0.0073	-0.0462	0.0165	0.9585
23.8366	2.7349	766.7672	46.7762	-285.5921	-45.3359	770.7897	-1.3857	10.8319	-1.1131	4.281	1.7736	9.8719	-0.0592	0.0182	-0.0073	-0.0462	0.0165	0.9585
23.849	4.1968	792.2713	48.9171	-294.6982	-46.5346	791.5883	-1.8614	3.0802	-0.75561	1.2583	1.563	3.2182	-0.0592	0.0182	-0.0073	-0.0462	0.0165	0.9585
23.8614	5.7946	810.577	50.7084	-301.0576	-47.3081	805.0491	-1.9091	-1.2229	-0.43438	-0.42858	1.2422	-0.47958	-0.0592	0.0182	-0.0073	-0.0462	0.0165	0.9585
23.8737	7.7106	820.5977	52.1425	-304.2784	-47.5825	810.1359	-1.7269	-3.0604	-0.18886	-1.16	0.92045	-2.0557	-0.0592	0.0182	-0.0073	-0.0462	0.0165	0.9585
23.8861	9.9963	822.0532	53.1742	-304.2843	-47.2951	806.6579	-1.4414	-3.3112	-0.013491	-1.2738	0.63512	-2.2644	-0.0592	0.0182	-0.0073	-0.0462	0.0165	0.9585
23.8984	12.6926	815.6002	53.8259	-301.3507	-46.4673	795.3457	-1.1351	-2.6805	0.081966	-1.0399	0.42143	-1.7129	-0.0592	0.0182	-0.0073	-0.0462	0.0165	0.9585
23.9108	15.7594	802.7589	54.038	-296.0714	-45.0637	777.7807	-0.8573	-1.6648	0.12086	-0.64808	0.27562	-0.82281	-0.0592	0.0182	-0.0073	-0.0462	0.0165	0.9585
23.9231	19.1175	785.6322	53.7982	-289.2464	-43.1143	756.0874	-0.62298	-0.59365	0.10752	-0.22513	0.19978	0.11537	-0.0592	0.0182	-0.0073	-0.0462	0.0165	0.9585
23.9355	22.6285	766.5465	53.1253	-281.7459	-40.692	732.5916	-0.45566	0.3634	0.072828	0.15957	0.1707	0.96037	-0.0592	0.0182	-0.0073	-0.0462	0.0165	0.9585
23.9479	26.1772	747.7022	52.1266	-274.3744	-37.951	709.4874	-0.33273	1.1137	0.026696	0.46825	0.17346	1.6173	-0.0592	0.0182	-0.0073	-0.0462	0.0165	0.9585
23.9602	29.6209	730.9234	50.9756	-267.7784	-35.1068	688.5819	-0.26436	1.6589	-0.015965	0.69765	0.19565	2.0932	-0.0592	0.0182	-0.0073	-0.0462	0.0165	0.9585
23.9726	32.8249	717.5364	49.8406	-262.4061	-32.3723	671.1862	-0.2192	2.018	-0.051553	0.85535	0.22451	2.3945	-0.0592	0.0182	-0.0073	-0.0462	0.0165	0.9585
23.9849	35.6645	708.2769	48.8771	-258.4831	-29.9403	658.042	-0.2123	2.2435	-0.079386	0.95979	0.25686	2.5802	-0.0592	0.0182	-0.0073	-0.0462	0.0165	0.9585
23.9973	38.0287	703.2945	48.1613	-256.0203	-27.9259	649.326	-0.22115	2.372	-0.10207	1.0253	0.28635	2.675	-0.0592	0.0182	-0.0073	-0.0462	0.0165	0.9585
24.0096	39.8423	702.1511	47.7677	-254.8225	-26.4261	644.641	-0.25797	2.4421	-0.12114	1.0628	0.3161	2.7273	-0.0592	0.0182	-0.0073	-0.0462	0.0165	0.9585
24.022	41.1061	703.9621	47.7081	-254.5441	-25.4571	643.1515	-0.30543	2.4515	-0.13155	1.0698	0.33805	2.7186	-0.0592	0.0182	-0.0073	-0.0462	0.0165	0.9585
24.0344	41.9038	707.5752	48.0211	-254.7555	-25.0315	643.7397	-0.36804	2.3901	-0.14027	1.0394	0.36401	2.6372	-0.0592	0.0182	-0.0073	-0.0462	0.0165	0.9585
